<svg width="179" height="40" viewBox="0 0 179 40" fill="none" xmlns="http://www.w3.org/2000/svg">
<path d="M0.00171269 20.2639C-0.029403 21.7614 0.364729 23.1619 1.08039 24.3361C1.49527 25.0256 2.02423 25.6396 2.6258 26.146C2.71915 26.2214 2.80213 26.2968 2.89547 26.3614C4.03638 27.2233 5.43659 27.6434 6.84717 27.6434H16.2441L13.3192 36.1972L12.0228 40L15.6426 37.4684L29.6757 27.6434L33.2437 25.1441L38.0044 21.8152L41.5723 19.3159H12.3961L13.8067 18.3356L17.4991 15.7501L21.2123 13.1538L21.2226 13.1322H21.2434L24.8217 10.6221L31.4079 6.02208L28.9705 13.1322L28.0785 15.7501H46.6857L50.4299 13.1322H31.3767L34.5713 3.80285L35.8678 0L32.7043 2.21923L26.1286 6.81928L22.5088 9.35093L17.1154 13.1215H7.23093C3.37258 13.1215 0.0950599 16.2672 0.00171269 20.2639ZM2.52209 20.4471C2.52209 20.0593 2.56357 19.6822 2.65692 19.3159C3.1444 17.2691 4.92837 15.7501 7.05461 15.7501H13.3711L12.7695 16.1702L10.6744 17.6246L8.26812 19.3051L4.70019 21.8045H33.8867L29.126 25.1333L26.6886 26.8354L25.5477 27.6326L23.5252 29.0547L16.9494 33.6655L19.0134 27.6434L19.8639 25.1441H7.05461C6.26635 25.1441 5.52994 24.9394 4.88688 24.5731C4.18159 24.1745 3.59039 23.5928 3.18589 22.8818C2.99919 22.5478 2.84361 22.1923 2.72952 21.8152C2.59469 21.3843 2.52209 20.9211 2.52209 20.4471Z" fill="#8AC24A"/>
<path d="M64.7324 19.3482L68.0307 13.1215H71.2253L66.2364 22.4508V27.6326H63.2389V22.4508L58.25 13.1215H61.4445L64.7324 19.3482Z" fill="black"/>
<path d="M80.9956 24.2176L79.7924 27.6434H76.5979L82.095 13.1215H85.2792L90.7763 27.6434H87.5817L86.3786 24.2176H80.9956ZM83.6923 16.7519L81.9913 21.5244H85.3933L83.6923 16.7519Z" fill="black"/>
<path d="M102.361 19.4452L107.848 13.1215H111.333L106.147 19.1328L111.737 27.6434H108.252L104.155 21.4274L102.361 23.485V27.6434H99.3533V13.1215H102.361V19.4452Z" fill="black"/>
<path d="M128.302 16.5473L129.505 13.1215H132.7L127.203 27.6434H124.018L118.521 13.1215H121.716L122.919 16.5473H128.302ZM127.317 19.2405H123.915L125.616 24.0129L127.317 19.2405Z" fill="black"/>
<path d="M153.599 13.1215H156.254V27.6434H153.257V17.9693L148.766 23.916L144.285 18.0124V27.6542H141.288V13.1215H143.984L148.766 19.4452L153.599 13.1215Z" fill="black"/>
<path d="M169.219 24.2176L168.016 27.6434H164.822L170.319 13.1215H173.503L179 27.6434H175.806L174.602 24.2176H169.219ZM171.926 16.7519L170.226 21.5244H173.627L171.926 16.7519Z" fill="black"/>
</svg>
