<svg width="18" height="12" viewBox="0 0 18 12" fill="none" xmlns="http://www.w3.org/2000/svg">
<path d="M12.0104 11.3033C11.8151 11.4986 11.4986 11.4986 11.3033 11.3033L10.5962 10.5962C10.4009 10.401 10.4009 10.0844 10.5962 9.88913L13.4851 7.00019H0.5C0.223858 7.00019 0 6.77633 0 6.50019V5.50019C0 5.22405 0.223858 5.00019 0.5 5.00019H13.4854L10.5962 2.11095C10.4009 1.91569 10.4009 1.59911 10.5962 1.40385L11.3033 0.69674C11.4986 0.501478 11.8151 0.501477 12.0104 0.696739L16.9602 5.64649C17.1554 5.84175 17.1554 6.15833 16.9602 6.35359L12.0104 11.3033Z" fill="#131D13"/>
</svg>
