<svg width="28" height="11" viewBox="0 0 28 11" fill="none" xmlns="http://www.w3.org/2000/svg">
<path d="M5.09628 0.146487C5.29155 -0.0487747 5.60813 -0.0487756 5.80339 0.146487L6.5105 0.853594C6.70576 1.04886 6.70576 1.36544 6.5105 1.5607L3.62156 4.44964L26.6067 4.44964C26.8828 4.44964 27.1067 4.6735 27.1067 4.94964L27.1067 5.94964C27.1067 6.22578 26.8828 6.44964 26.6067 6.44964L3.62126 6.44964L6.51049 9.33887C6.70576 9.53414 6.70576 9.85072 6.5105 10.046L5.80339 10.7531C5.60813 10.9483 5.29155 10.9483 5.09628 10.7531L0.146534 5.80334C-0.0487266 5.60808 -0.0487265 5.29149 0.146534 5.09623L5.09628 0.146487Z" fill="#131D13"/>
</svg>
