<svg width="29" height="35" viewBox="0 0 29 35" fill="none" xmlns="http://www.w3.org/2000/svg">
<path fill-rule="evenodd" clip-rule="evenodd" d="M26.8145 5.6V1.07093e-06L2.7619 0L2.7619 7H2.20457e-07L0 12.6H2.7619L2.7619 35H19.3333C24.6721 35 29 30.4949 29 24.9375V24.0625C29 18.5051 24.6721 14 19.3333 14L8.32174 14V12.6L23.5362 12.6V7L8.32174 7V5.6L26.8145 5.6ZM8.32174 29.4V19.6H19.3333C21.4048 19.6 23.4762 21.7 23.4762 24.0625V24.9375C23.4762 27.3 21.4048 29.4 19.3333 29.4H8.32174Z" fill="#8AC249"/>
</svg>
