<svg width="28" height="12" viewBox="0 0 28 12" fill="none" xmlns="http://www.w3.org/2000/svg">
<path d="M22.0104 11.3033C21.8151 11.4986 21.4986 11.4986 21.3033 11.3033L20.5962 10.5962C20.4009 10.401 20.4009 10.0844 20.5962 9.88913L23.4851 7.00019H0.5C0.223858 7.00019 0 6.77633 0 6.50019V5.50019C0 5.22405 0.223858 5.00019 0.5 5.00019H23.4854L20.5962 2.11095C20.4009 1.91569 20.4009 1.59911 20.5962 1.40385L21.3033 0.69674C21.4986 0.501478 21.8151 0.501477 22.0104 0.696739L26.9602 5.64649C27.1554 5.84175 27.1554 6.15833 26.9602 6.35359L22.0104 11.3033Z" fill="#8AC249"/>
</svg>
