<svg width="28" height="11" viewBox="0 0 28 11" fill="none" xmlns="http://www.w3.org/2000/svg">
<path d="M5.09616 0.146487C5.29142 -0.0487747 5.60801 -0.0487756 5.80327 0.146487L6.51037 0.853594C6.70564 1.04886 6.70564 1.36544 6.51037 1.5607L3.62144 4.44964L26.6066 4.44964C26.8827 4.44964 27.1066 4.6735 27.1066 4.94964L27.1066 5.94964C27.1066 6.22578 26.8827 6.44964 26.6066 6.44964L3.62114 6.44964L6.51037 9.33887C6.70564 9.53414 6.70564 9.85072 6.51037 10.046L5.80327 10.7531C5.60801 10.9483 5.29142 10.9483 5.09616 10.7531L0.146412 5.80334C-0.0488486 5.60808 -0.0488486 5.29149 0.146412 5.09623L5.09616 0.146487Z" fill="#131D13"/>
</svg>
