<svg width="28" height="11" viewBox="0 0 28 11" fill="none" xmlns="http://www.w3.org/2000/svg">
<path d="M22.0104 10.753C21.8151 10.9483 21.4986 10.9483 21.3033 10.753L20.5962 10.0459C20.4009 9.85068 20.4009 9.5341 20.5962 9.33883L23.4851 6.4499H0.5C0.223858 6.4499 0 6.22604 0 5.9499V4.9499C0 4.67375 0.223858 4.4499 0.5 4.4499H23.4854L20.5962 1.56066C20.4009 1.3654 20.4009 1.04882 20.5962 0.853554L21.3033 0.146447C21.4986 -0.0488154 21.8151 -0.0488156 22.0104 0.146446L26.9602 5.09619C27.1554 5.29146 27.1554 5.60804 26.9602 5.8033L22.0104 10.753Z" fill="#131D13"/>
</svg>
