<svg width="28" height="11" viewBox="0 0 28 11" fill="none" xmlns="http://www.w3.org/2000/svg">
<path d="M22.0104 10.753C21.8152 10.9483 21.4986 10.9483 21.3033 10.753L20.5962 10.0459C20.401 9.85068 20.401 9.5341 20.5962 9.33883L23.4852 6.4499H0.500031C0.223888 6.4499 3.05176e-05 6.22604 3.05176e-05 5.9499V4.9499C3.05176e-05 4.67375 0.223888 4.4499 0.500031 4.4499H23.4855L20.5962 1.56066C20.401 1.3654 20.401 1.04882 20.5962 0.853554L21.3033 0.146447C21.4986 -0.0488154 21.8152 -0.0488156 22.0104 0.146446L26.9602 5.09619C27.1554 5.29146 27.1554 5.60804 26.9602 5.8033L22.0104 10.753Z" fill="#8AC249"/>
</svg>
